# xmcd CD database file
#
# Track frame offsets:
#	183
#	12215
#	23453
#	33355
#	43600
#	56393
#	67040
#	79088
#	92408
#	102515
#	116413
#	129225
#	141063
#	155755
#	167310
#	176623
#	191028
#	205820
#	217653
#	236785
#	249373
#	261908
#
# Disc length: 3655 seconds
#
# Revision: 4
# Processed by: cddbd v1.5.1PL2 Copyright (c) Steve Scherf et al.
# Submitted via: CDex 1.51
#
DISCID=1c0e4516
DTITLE=Various Artist - This Is Charly R&B
DYEAR=1987
DGENRE=R&B
TTITLE0=Hank Ballard and The Midnighters - Look At Little Sister
TTITLE1=Wynonie Harris - Lovin' Machine
TTITLE2=Betty Everett - It's In His Kiss
TTITLE3=Little Willie John - Need Your Love So Bad
TTITLE4=Aaron Neville - All These Things
TTITLE5=Dominoes - That's What You're Doing To Me
TTITLE6=Freddy King - Hide Away
TTITLE7=Howlin' Wolf - Howlin' For My Baby
TTITLE8=John Lee Hooker - Dimples
TTITLE9=Elmore James - It Hurts Me Too
TTITLE10=Jimmy Reed - Shame, Shame, Shame
TTITLE11=Five Royales - Think
TTITLE12=Meters - Look-Ka Py Py
TTITLE13=Lee Dorsey - Holy Cow
TTITLE14=Dee Clark - Your Friends
TTITLE15=Robert Cray Band - I'm Gonna Forget About You
TTITLE16=Johnny 'Guitar' Watson - Cuttin' In
TTITLE17=Jerry Butler - Make It Easy On Yourself
TTITLE18=Geator Davis - Sad Shade Of Blue
TTITLE19=Gene Chandler - Rainbow
TTITLE20=Little Esther - Aged And Mellow Blues
TTITLE21=Spaniels - Goodnight, Sweetheart, Goodnight
EXTD=
EXTT0=
EXTT1=
EXTT2=
EXTT3=
EXTT4=
EXTT5=
EXTT6=
EXTT7=
EXTT8=
EXTT9=
EXTT10=
EXTT11=
EXTT12=
EXTT13=
EXTT14=
EXTT15=
EXTT16=
EXTT17=
EXTT18=
EXTT19=
EXTT20=
EXTT21=
PLAYORDER=
